<?xml version="1.0" encoding="UTF-8" standalone="no"?>
<!DOCTYPE svg PUBLIC "-//W3C//DTD SVG 1.1//EN"
 "http://www.w3.org/Graphics/SVG/1.1/DTD/svg11.dtd">
<!-- Generated by graphviz version 2.43.0 (0)
 -->
<!-- Title: %3 Pages: 1 -->
<svg width="1213pt" height="100pt"
 viewBox="0.00 0.00 1213.00 99.50" xmlns="http://www.w3.org/2000/svg" xmlns:xlink="http://www.w3.org/1999/xlink">
<g id="graph0" class="graph" transform="scale(1 1) rotate(0) translate(4 95.5)">
<title>%3</title>
<polygon fill="#1e1e1e" stroke="transparent" points="-4,4 -4,-95.5 1209,-95.5 1209,4 -4,4"/>
<!-- input -->
<g id="node1" class="node">
<title>input</title>
<polygon fill="#2d2d2d" stroke="lightgray" points="87,-62 0,-62 0,-26 87,-26 87,-62"/>
<text text-anchor="middle" x="43.5" y="-47" font-family="Helvetica,sans-Serif" font-size="10.00" fill="white">Input</text>
<text text-anchor="middle" x="43.5" y="-36" font-family="Helvetica,sans-Serif" font-size="10.00" fill="white">[B, C_in, H, W]</text>
</g>
<!-- conv1 -->
<g id="node2" class="node">
<title>conv1</title>
<polygon fill="#2d2d2d" stroke="lightgray" points="231,-90.5 123,-90.5 123,-49.5 231,-49.5 231,-90.5"/>
<text text-anchor="middle" x="177" y="-78.5" font-family="Helvetica,sans-Serif" font-size="10.00" fill="white">Conv1x1</text>
<text text-anchor="middle" x="177" y="-67.5" font-family="Helvetica,sans-Serif" font-size="10.00" fill="white">Reduce dims</text>
<text text-anchor="middle" x="177" y="-56.5" font-family="Helvetica,sans-Serif" font-size="10.00" fill="white">→ [B, C_mid, H, W]</text>
</g>
<!-- input&#45;&gt;conv1 -->
<g id="edge1" class="edge">
<title>input&#45;&gt;conv1</title>
<path fill="none" stroke="black" d="M87.19,-52.44C95.48,-54.08 104.32,-55.83 113.09,-57.56"/>
<polygon fill="black" stroke="black" points="112.45,-61 122.93,-59.51 113.8,-54.13 112.45,-61"/>
</g>
<!-- skip -->
<g id="node8" class="node">
<title>skip</title>
<polygon fill="#2d2d2d" stroke="lightgray" points="407,-36 267,-36 267,0 407,0 407,-36"/>
<text text-anchor="middle" x="337" y="-21" font-family="Helvetica,sans-Serif" font-size="10.00" fill="white">Skip Connection</text>
<text text-anchor="middle" x="337" y="-10" font-family="Helvetica,sans-Serif" font-size="10.00" fill="white">(identity or downsample)</text>
</g>
<!-- input&#45;&gt;skip -->
<g id="edge8" class="edge">
<title>input&#45;&gt;skip</title>
<path fill="none" stroke="black" d="M87.2,-40.19C131.64,-36.23 202.24,-29.93 256.91,-25.05"/>
<polygon fill="black" stroke="black" points="257.27,-28.54 266.92,-24.16 256.65,-21.56 257.27,-28.54"/>
</g>
<!-- bn1 -->
<g id="node3" class="node">
<title>bn1</title>
<polygon fill="#2d2d2d" stroke="lightgray" points="392.5,-90 281.5,-90 281.5,-54 392.5,-54 392.5,-90"/>
<text text-anchor="middle" x="337" y="-69.5" font-family="Helvetica,sans-Serif" font-size="10.00" fill="white">BatchNorm + ReLU</text>
</g>
<!-- conv1&#45;&gt;bn1 -->
<g id="edge2" class="edge">
<title>conv1&#45;&gt;bn1</title>
<path fill="none" stroke="black" d="M231.05,-70.67C243.98,-70.84 257.96,-71.01 271.36,-71.18"/>
<polygon fill="black" stroke="black" points="271.43,-74.68 281.47,-71.31 271.52,-67.68 271.43,-74.68"/>
</g>
<!-- conv2 -->
<g id="node4" class="node">
<title>conv2</title>
<polygon fill="#2d2d2d" stroke="lightgray" points="551,-91.5 443,-91.5 443,-50.5 551,-50.5 551,-91.5"/>
<text text-anchor="middle" x="497" y="-79.5" font-family="Helvetica,sans-Serif" font-size="10.00" fill="white">Conv3x3</text>
<text text-anchor="middle" x="497" y="-68.5" font-family="Helvetica,sans-Serif" font-size="10.00" fill="white">Stride or dilation</text>
<text text-anchor="middle" x="497" y="-57.5" font-family="Helvetica,sans-Serif" font-size="10.00" fill="white">→ [B, C_mid, H, W]</text>
</g>
<!-- bn1&#45;&gt;conv2 -->
<g id="edge3" class="edge">
<title>bn1&#45;&gt;conv2</title>
<path fill="none" stroke="black" d="M392.82,-71.65C405.62,-71.57 419.35,-71.49 432.5,-71.4"/>
<polygon fill="black" stroke="black" points="432.9,-74.9 442.88,-71.34 432.86,-67.9 432.9,-74.9"/>
</g>
<!-- bn2 -->
<g id="node5" class="node">
<title>bn2</title>
<polygon fill="#2d2d2d" stroke="lightgray" points="698,-88 587,-88 587,-52 698,-52 698,-88"/>
<text text-anchor="middle" x="642.5" y="-67.5" font-family="Helvetica,sans-Serif" font-size="10.00" fill="white">BatchNorm + ReLU</text>
</g>
<!-- conv2&#45;&gt;bn2 -->
<g id="edge4" class="edge">
<title>conv2&#45;&gt;bn2</title>
<path fill="none" stroke="black" d="M551.03,-70.63C559.4,-70.57 568.15,-70.51 576.76,-70.45"/>
<polygon fill="black" stroke="black" points="576.8,-73.95 586.77,-70.38 576.75,-66.95 576.8,-73.95"/>
</g>
<!-- conv3 -->
<g id="node6" class="node">
<title>conv3</title>
<polygon fill="#2d2d2d" stroke="lightgray" points="839,-90.5 734,-90.5 734,-49.5 839,-49.5 839,-90.5"/>
<text text-anchor="middle" x="786.5" y="-78.5" font-family="Helvetica,sans-Serif" font-size="10.00" fill="white">Conv1x1</text>
<text text-anchor="middle" x="786.5" y="-67.5" font-family="Helvetica,sans-Serif" font-size="10.00" fill="white">Expand dims</text>
<text text-anchor="middle" x="786.5" y="-56.5" font-family="Helvetica,sans-Serif" font-size="10.00" fill="white">→ [B, C_out, H, W]</text>
</g>
<!-- bn2&#45;&gt;conv3 -->
<g id="edge5" class="edge">
<title>bn2&#45;&gt;conv3</title>
<path fill="none" stroke="black" d="M698.4,-70C706.61,-70 715.13,-70 723.47,-70"/>
<polygon fill="black" stroke="black" points="723.54,-73.5 733.54,-70 723.54,-66.5 723.54,-73.5"/>
</g>
<!-- bn3 -->
<g id="node7" class="node">
<title>bn3</title>
<polygon fill="#2d2d2d" stroke="lightgray" points="946,-85 875,-85 875,-49 946,-49 946,-85"/>
<text text-anchor="middle" x="910.5" y="-64.5" font-family="Helvetica,sans-Serif" font-size="10.00" fill="white">BatchNorm</text>
</g>
<!-- conv3&#45;&gt;bn3 -->
<g id="edge6" class="edge">
<title>conv3&#45;&gt;bn3</title>
<path fill="none" stroke="black" d="M839.24,-68.73C847.64,-68.52 856.28,-68.31 864.51,-68.11"/>
<polygon fill="black" stroke="black" points="864.74,-71.6 874.65,-67.86 864.57,-64.6 864.74,-71.6"/>
</g>
<!-- add -->
<g id="node9" class="node">
<title>add</title>
<polygon fill="#2d2d2d" stroke="lightgray" points="1036,-61 982,-61 982,-25 1036,-25 1036,-61"/>
<text text-anchor="middle" x="1009" y="-40.5" font-family="Helvetica,sans-Serif" font-size="10.00" fill="white">Add</text>
</g>
<!-- bn3&#45;&gt;add -->
<g id="edge7" class="edge">
<title>bn3&#45;&gt;add</title>
<path fill="none" stroke="black" d="M946.07,-58.4C954.45,-56.32 963.43,-54.08 971.88,-51.98"/>
<polygon fill="black" stroke="black" points="972.99,-55.31 981.85,-49.5 971.3,-48.52 972.99,-55.31"/>
</g>
<!-- skip&#45;&gt;add -->
<g id="edge9" class="edge">
<title>skip&#45;&gt;add</title>
<path fill="none" stroke="black" d="M407.01,-18.71C468.52,-19.29 561.01,-20 641.5,-20 641.5,-20 641.5,-20 787.5,-20 852.75,-20 928.27,-30.09 971.85,-36.9"/>
<polygon fill="black" stroke="black" points="971.53,-40.39 981.96,-38.51 972.63,-33.48 971.53,-40.39"/>
</g>
<!-- relu_out -->
<g id="node10" class="node">
<title>relu_out</title>
<polygon fill="#2d2d2d" stroke="lightgray" points="1205,-61 1072,-61 1072,-25 1205,-25 1205,-61"/>
<text text-anchor="middle" x="1138.5" y="-46" font-family="Helvetica,sans-Serif" font-size="10.00" fill="white">ReLU</text>
<text text-anchor="middle" x="1138.5" y="-35" font-family="Helvetica,sans-Serif" font-size="10.00" fill="white">Output: [B, C_out, H, W]</text>
</g>
<!-- add&#45;&gt;relu_out -->
<g id="edge10" class="edge">
<title>add&#45;&gt;relu_out</title>
<path fill="none" stroke="black" d="M1036.11,-43C1043.81,-43 1052.66,-43 1061.85,-43"/>
<polygon fill="black" stroke="black" points="1061.92,-46.5 1071.92,-43 1061.92,-39.5 1061.92,-46.5"/>
</g>
</g>
</svg>
