<?xml version="1.0" encoding="UTF-8" standalone="no"?>
<!DOCTYPE svg PUBLIC "-//W3C//DTD SVG 1.1//EN"
 "http://www.w3.org/Graphics/SVG/1.1/DTD/svg11.dtd">
<!-- Generated by graphviz version 2.43.0 (0)
 -->
<!-- Title: %3 Pages: 1 -->
<svg width="118pt" height="3966pt"
 viewBox="0.00 0.00 118.00 3966.00" xmlns="http://www.w3.org/2000/svg" xmlns:xlink="http://www.w3.org/1999/xlink">
<g id="graph0" class="graph" transform="scale(1 1) rotate(0) translate(4 3962)">
<title>%3</title>
<polygon fill="#1e1e1e" stroke="transparent" points="-4,4 -4,-3962 114,-3962 114,4 -4,4"/>
<!-- input -->
<g id="node1" class="node">
<title>input</title>
<polygon fill="#2d2d2d" stroke="lightgray" points="84.5,-3958 25.5,-3958 25.5,-3922 84.5,-3922 84.5,-3958"/>
<text text-anchor="middle" x="55" y="-3943" font-family="Helvetica,sans-Serif" font-size="10.00" fill="white">Input</text>
<text text-anchor="middle" x="55" y="-3932" font-family="Helvetica,sans-Serif" font-size="10.00" fill="white">[B, D_in]</text>
</g>
<!-- layer1 -->
<g id="node2" class="node">
<title>layer1</title>
<polygon fill="#2d2d2d" stroke="lightgray" points="82,-3886 28,-3886 28,-3845 82,-3845 82,-3886"/>
<text text-anchor="middle" x="55" y="-3874" font-family="Helvetica,sans-Serif" font-size="10.00" fill="white">Linear</text>
<text text-anchor="middle" x="55" y="-3863" font-family="Helvetica,sans-Serif" font-size="10.00" fill="white">4 units</text>
<text text-anchor="middle" x="55" y="-3852" font-family="Helvetica,sans-Serif" font-size="10.00" fill="white">(ReLU)</text>
</g>
<!-- input&#45;&gt;layer1 -->
<g id="edge1" class="edge">
<title>input&#45;&gt;layer1</title>
<path fill="none" stroke="black" d="M55,-3921.82C55,-3914.2 55,-3905 55,-3896.32"/>
<polygon fill="black" stroke="black" points="58.5,-3896.12 55,-3886.12 51.5,-3896.12 58.5,-3896.12"/>
</g>
<!-- layer2 -->
<g id="node3" class="node">
<title>layer2</title>
<polygon fill="#2d2d2d" stroke="lightgray" points="82,-3809 28,-3809 28,-3768 82,-3768 82,-3809"/>
<text text-anchor="middle" x="55" y="-3797" font-family="Helvetica,sans-Serif" font-size="10.00" fill="white">Linear</text>
<text text-anchor="middle" x="55" y="-3786" font-family="Helvetica,sans-Serif" font-size="10.00" fill="white">4 units</text>
<text text-anchor="middle" x="55" y="-3775" font-family="Helvetica,sans-Serif" font-size="10.00" fill="white">(ReLU)</text>
</g>
<!-- layer1&#45;&gt;layer2 -->
<g id="edge2" class="edge">
<title>layer1&#45;&gt;layer2</title>
<path fill="none" stroke="black" d="M55,-3844.79C55,-3836.96 55,-3827.77 55,-3819.16"/>
<polygon fill="black" stroke="black" points="58.5,-3819.07 55,-3809.07 51.5,-3819.07 58.5,-3819.07"/>
</g>
<!-- layer3 -->
<g id="node4" class="node">
<title>layer3</title>
<polygon fill="#2d2d2d" stroke="lightgray" points="82,-3732 28,-3732 28,-3691 82,-3691 82,-3732"/>
<text text-anchor="middle" x="55" y="-3720" font-family="Helvetica,sans-Serif" font-size="10.00" fill="white">Linear</text>
<text text-anchor="middle" x="55" y="-3709" font-family="Helvetica,sans-Serif" font-size="10.00" fill="white">4 units</text>
<text text-anchor="middle" x="55" y="-3698" font-family="Helvetica,sans-Serif" font-size="10.00" fill="white">(ReLU)</text>
</g>
<!-- layer2&#45;&gt;layer3 -->
<g id="edge3" class="edge">
<title>layer2&#45;&gt;layer3</title>
<path fill="none" stroke="black" d="M55,-3767.79C55,-3759.96 55,-3750.77 55,-3742.16"/>
<polygon fill="black" stroke="black" points="58.5,-3742.07 55,-3732.07 51.5,-3742.07 58.5,-3742.07"/>
</g>
<!-- layer4 -->
<g id="node5" class="node">
<title>layer4</title>
<polygon fill="#2d2d2d" stroke="lightgray" points="82,-3655 28,-3655 28,-3614 82,-3614 82,-3655"/>
<text text-anchor="middle" x="55" y="-3643" font-family="Helvetica,sans-Serif" font-size="10.00" fill="white">Linear</text>
<text text-anchor="middle" x="55" y="-3632" font-family="Helvetica,sans-Serif" font-size="10.00" fill="white">4 units</text>
<text text-anchor="middle" x="55" y="-3621" font-family="Helvetica,sans-Serif" font-size="10.00" fill="white">(ReLU)</text>
</g>
<!-- layer3&#45;&gt;layer4 -->
<g id="edge4" class="edge">
<title>layer3&#45;&gt;layer4</title>
<path fill="none" stroke="black" d="M55,-3690.79C55,-3682.96 55,-3673.77 55,-3665.16"/>
<polygon fill="black" stroke="black" points="58.5,-3665.07 55,-3655.07 51.5,-3665.07 58.5,-3665.07"/>
</g>
<!-- layer5 -->
<g id="node6" class="node">
<title>layer5</title>
<polygon fill="#2d2d2d" stroke="lightgray" points="82,-3578 28,-3578 28,-3537 82,-3537 82,-3578"/>
<text text-anchor="middle" x="55" y="-3566" font-family="Helvetica,sans-Serif" font-size="10.00" fill="white">Linear</text>
<text text-anchor="middle" x="55" y="-3555" font-family="Helvetica,sans-Serif" font-size="10.00" fill="white">4 units</text>
<text text-anchor="middle" x="55" y="-3544" font-family="Helvetica,sans-Serif" font-size="10.00" fill="white">(ReLU)</text>
</g>
<!-- layer4&#45;&gt;layer5 -->
<g id="edge5" class="edge">
<title>layer4&#45;&gt;layer5</title>
<path fill="none" stroke="black" d="M55,-3613.79C55,-3605.96 55,-3596.77 55,-3588.16"/>
<polygon fill="black" stroke="black" points="58.5,-3588.07 55,-3578.07 51.5,-3588.07 58.5,-3588.07"/>
</g>
<!-- layer6 -->
<g id="node7" class="node">
<title>layer6</title>
<polygon fill="#2d2d2d" stroke="lightgray" points="82,-3501 28,-3501 28,-3460 82,-3460 82,-3501"/>
<text text-anchor="middle" x="55" y="-3489" font-family="Helvetica,sans-Serif" font-size="10.00" fill="white">Linear</text>
<text text-anchor="middle" x="55" y="-3478" font-family="Helvetica,sans-Serif" font-size="10.00" fill="white">4 units</text>
<text text-anchor="middle" x="55" y="-3467" font-family="Helvetica,sans-Serif" font-size="10.00" fill="white">(ReLU)</text>
</g>
<!-- layer5&#45;&gt;layer6 -->
<g id="edge6" class="edge">
<title>layer5&#45;&gt;layer6</title>
<path fill="none" stroke="black" d="M55,-3536.79C55,-3528.96 55,-3519.77 55,-3511.16"/>
<polygon fill="black" stroke="black" points="58.5,-3511.07 55,-3501.07 51.5,-3511.07 58.5,-3511.07"/>
</g>
<!-- layer7 -->
<g id="node8" class="node">
<title>layer7</title>
<polygon fill="#2d2d2d" stroke="lightgray" points="82,-3424 28,-3424 28,-3383 82,-3383 82,-3424"/>
<text text-anchor="middle" x="55" y="-3412" font-family="Helvetica,sans-Serif" font-size="10.00" fill="white">Linear</text>
<text text-anchor="middle" x="55" y="-3401" font-family="Helvetica,sans-Serif" font-size="10.00" fill="white">4 units</text>
<text text-anchor="middle" x="55" y="-3390" font-family="Helvetica,sans-Serif" font-size="10.00" fill="white">(ReLU)</text>
</g>
<!-- layer6&#45;&gt;layer7 -->
<g id="edge7" class="edge">
<title>layer6&#45;&gt;layer7</title>
<path fill="none" stroke="black" d="M55,-3459.79C55,-3451.96 55,-3442.77 55,-3434.16"/>
<polygon fill="black" stroke="black" points="58.5,-3434.07 55,-3424.07 51.5,-3434.07 58.5,-3434.07"/>
</g>
<!-- layer8 -->
<g id="node9" class="node">
<title>layer8</title>
<polygon fill="#2d2d2d" stroke="lightgray" points="82,-3347 28,-3347 28,-3306 82,-3306 82,-3347"/>
<text text-anchor="middle" x="55" y="-3335" font-family="Helvetica,sans-Serif" font-size="10.00" fill="white">Linear</text>
<text text-anchor="middle" x="55" y="-3324" font-family="Helvetica,sans-Serif" font-size="10.00" fill="white">4 units</text>
<text text-anchor="middle" x="55" y="-3313" font-family="Helvetica,sans-Serif" font-size="10.00" fill="white">(ReLU)</text>
</g>
<!-- layer7&#45;&gt;layer8 -->
<g id="edge8" class="edge">
<title>layer7&#45;&gt;layer8</title>
<path fill="none" stroke="black" d="M55,-3382.79C55,-3374.96 55,-3365.77 55,-3357.16"/>
<polygon fill="black" stroke="black" points="58.5,-3357.07 55,-3347.07 51.5,-3357.07 58.5,-3357.07"/>
</g>
<!-- layer9 -->
<g id="node10" class="node">
<title>layer9</title>
<polygon fill="#2d2d2d" stroke="lightgray" points="82,-3270 28,-3270 28,-3229 82,-3229 82,-3270"/>
<text text-anchor="middle" x="55" y="-3258" font-family="Helvetica,sans-Serif" font-size="10.00" fill="white">Linear</text>
<text text-anchor="middle" x="55" y="-3247" font-family="Helvetica,sans-Serif" font-size="10.00" fill="white">4 units</text>
<text text-anchor="middle" x="55" y="-3236" font-family="Helvetica,sans-Serif" font-size="10.00" fill="white">(ReLU)</text>
</g>
<!-- layer8&#45;&gt;layer9 -->
<g id="edge9" class="edge">
<title>layer8&#45;&gt;layer9</title>
<path fill="none" stroke="black" d="M55,-3305.79C55,-3297.96 55,-3288.77 55,-3280.16"/>
<polygon fill="black" stroke="black" points="58.5,-3280.07 55,-3270.07 51.5,-3280.07 58.5,-3280.07"/>
</g>
<!-- layer10 -->
<g id="node11" class="node">
<title>layer10</title>
<polygon fill="#2d2d2d" stroke="lightgray" points="82,-3193 28,-3193 28,-3152 82,-3152 82,-3193"/>
<text text-anchor="middle" x="55" y="-3181" font-family="Helvetica,sans-Serif" font-size="10.00" fill="white">Linear</text>
<text text-anchor="middle" x="55" y="-3170" font-family="Helvetica,sans-Serif" font-size="10.00" fill="white">4 units</text>
<text text-anchor="middle" x="55" y="-3159" font-family="Helvetica,sans-Serif" font-size="10.00" fill="white">(ReLU)</text>
</g>
<!-- layer9&#45;&gt;layer10 -->
<g id="edge10" class="edge">
<title>layer9&#45;&gt;layer10</title>
<path fill="none" stroke="black" d="M55,-3228.79C55,-3220.96 55,-3211.77 55,-3203.16"/>
<polygon fill="black" stroke="black" points="58.5,-3203.07 55,-3193.07 51.5,-3203.07 58.5,-3203.07"/>
</g>
<!-- layer11 -->
<g id="node12" class="node">
<title>layer11</title>
<polygon fill="#2d2d2d" stroke="lightgray" points="82,-3116 28,-3116 28,-3075 82,-3075 82,-3116"/>
<text text-anchor="middle" x="55" y="-3104" font-family="Helvetica,sans-Serif" font-size="10.00" fill="white">Linear</text>
<text text-anchor="middle" x="55" y="-3093" font-family="Helvetica,sans-Serif" font-size="10.00" fill="white">4 units</text>
<text text-anchor="middle" x="55" y="-3082" font-family="Helvetica,sans-Serif" font-size="10.00" fill="white">(ReLU)</text>
</g>
<!-- layer10&#45;&gt;layer11 -->
<g id="edge11" class="edge">
<title>layer10&#45;&gt;layer11</title>
<path fill="none" stroke="black" d="M55,-3151.79C55,-3143.96 55,-3134.77 55,-3126.16"/>
<polygon fill="black" stroke="black" points="58.5,-3126.07 55,-3116.07 51.5,-3126.07 58.5,-3126.07"/>
</g>
<!-- layer12 -->
<g id="node13" class="node">
<title>layer12</title>
<polygon fill="#2d2d2d" stroke="lightgray" points="82,-3039 28,-3039 28,-2998 82,-2998 82,-3039"/>
<text text-anchor="middle" x="55" y="-3027" font-family="Helvetica,sans-Serif" font-size="10.00" fill="white">Linear</text>
<text text-anchor="middle" x="55" y="-3016" font-family="Helvetica,sans-Serif" font-size="10.00" fill="white">4 units</text>
<text text-anchor="middle" x="55" y="-3005" font-family="Helvetica,sans-Serif" font-size="10.00" fill="white">(ReLU)</text>
</g>
<!-- layer11&#45;&gt;layer12 -->
<g id="edge12" class="edge">
<title>layer11&#45;&gt;layer12</title>
<path fill="none" stroke="black" d="M55,-3074.79C55,-3066.96 55,-3057.77 55,-3049.16"/>
<polygon fill="black" stroke="black" points="58.5,-3049.07 55,-3039.07 51.5,-3049.07 58.5,-3049.07"/>
</g>
<!-- layer13 -->
<g id="node14" class="node">
<title>layer13</title>
<polygon fill="#2d2d2d" stroke="lightgray" points="82,-2962 28,-2962 28,-2921 82,-2921 82,-2962"/>
<text text-anchor="middle" x="55" y="-2950" font-family="Helvetica,sans-Serif" font-size="10.00" fill="white">Linear</text>
<text text-anchor="middle" x="55" y="-2939" font-family="Helvetica,sans-Serif" font-size="10.00" fill="white">4 units</text>
<text text-anchor="middle" x="55" y="-2928" font-family="Helvetica,sans-Serif" font-size="10.00" fill="white">(ReLU)</text>
</g>
<!-- layer12&#45;&gt;layer13 -->
<g id="edge13" class="edge">
<title>layer12&#45;&gt;layer13</title>
<path fill="none" stroke="black" d="M55,-2997.79C55,-2989.96 55,-2980.77 55,-2972.16"/>
<polygon fill="black" stroke="black" points="58.5,-2972.07 55,-2962.07 51.5,-2972.07 58.5,-2972.07"/>
</g>
<!-- layer14 -->
<g id="node15" class="node">
<title>layer14</title>
<polygon fill="#2d2d2d" stroke="lightgray" points="82,-2885 28,-2885 28,-2844 82,-2844 82,-2885"/>
<text text-anchor="middle" x="55" y="-2873" font-family="Helvetica,sans-Serif" font-size="10.00" fill="white">Linear</text>
<text text-anchor="middle" x="55" y="-2862" font-family="Helvetica,sans-Serif" font-size="10.00" fill="white">4 units</text>
<text text-anchor="middle" x="55" y="-2851" font-family="Helvetica,sans-Serif" font-size="10.00" fill="white">(ReLU)</text>
</g>
<!-- layer13&#45;&gt;layer14 -->
<g id="edge14" class="edge">
<title>layer13&#45;&gt;layer14</title>
<path fill="none" stroke="black" d="M55,-2920.79C55,-2912.96 55,-2903.77 55,-2895.16"/>
<polygon fill="black" stroke="black" points="58.5,-2895.07 55,-2885.07 51.5,-2895.07 58.5,-2895.07"/>
</g>
<!-- layer15 -->
<g id="node16" class="node">
<title>layer15</title>
<polygon fill="#2d2d2d" stroke="lightgray" points="82,-2808 28,-2808 28,-2767 82,-2767 82,-2808"/>
<text text-anchor="middle" x="55" y="-2796" font-family="Helvetica,sans-Serif" font-size="10.00" fill="white">Linear</text>
<text text-anchor="middle" x="55" y="-2785" font-family="Helvetica,sans-Serif" font-size="10.00" fill="white">4 units</text>
<text text-anchor="middle" x="55" y="-2774" font-family="Helvetica,sans-Serif" font-size="10.00" fill="white">(ReLU)</text>
</g>
<!-- layer14&#45;&gt;layer15 -->
<g id="edge15" class="edge">
<title>layer14&#45;&gt;layer15</title>
<path fill="none" stroke="black" d="M55,-2843.79C55,-2835.96 55,-2826.77 55,-2818.16"/>
<polygon fill="black" stroke="black" points="58.5,-2818.07 55,-2808.07 51.5,-2818.07 58.5,-2818.07"/>
</g>
<!-- layer16 -->
<g id="node17" class="node">
<title>layer16</title>
<polygon fill="#2d2d2d" stroke="lightgray" points="82,-2731 28,-2731 28,-2690 82,-2690 82,-2731"/>
<text text-anchor="middle" x="55" y="-2719" font-family="Helvetica,sans-Serif" font-size="10.00" fill="white">Linear</text>
<text text-anchor="middle" x="55" y="-2708" font-family="Helvetica,sans-Serif" font-size="10.00" fill="white">4 units</text>
<text text-anchor="middle" x="55" y="-2697" font-family="Helvetica,sans-Serif" font-size="10.00" fill="white">(ReLU)</text>
</g>
<!-- layer15&#45;&gt;layer16 -->
<g id="edge16" class="edge">
<title>layer15&#45;&gt;layer16</title>
<path fill="none" stroke="black" d="M55,-2766.79C55,-2758.96 55,-2749.77 55,-2741.16"/>
<polygon fill="black" stroke="black" points="58.5,-2741.07 55,-2731.07 51.5,-2741.07 58.5,-2741.07"/>
</g>
<!-- layer17 -->
<g id="node18" class="node">
<title>layer17</title>
<polygon fill="#2d2d2d" stroke="lightgray" points="82,-2654 28,-2654 28,-2613 82,-2613 82,-2654"/>
<text text-anchor="middle" x="55" y="-2642" font-family="Helvetica,sans-Serif" font-size="10.00" fill="white">Linear</text>
<text text-anchor="middle" x="55" y="-2631" font-family="Helvetica,sans-Serif" font-size="10.00" fill="white">4 units</text>
<text text-anchor="middle" x="55" y="-2620" font-family="Helvetica,sans-Serif" font-size="10.00" fill="white">(ReLU)</text>
</g>
<!-- layer16&#45;&gt;layer17 -->
<g id="edge17" class="edge">
<title>layer16&#45;&gt;layer17</title>
<path fill="none" stroke="black" d="M55,-2689.79C55,-2681.96 55,-2672.77 55,-2664.16"/>
<polygon fill="black" stroke="black" points="58.5,-2664.07 55,-2654.07 51.5,-2664.07 58.5,-2664.07"/>
</g>
<!-- layer18 -->
<g id="node19" class="node">
<title>layer18</title>
<polygon fill="#2d2d2d" stroke="lightgray" points="82,-2577 28,-2577 28,-2536 82,-2536 82,-2577"/>
<text text-anchor="middle" x="55" y="-2565" font-family="Helvetica,sans-Serif" font-size="10.00" fill="white">Linear</text>
<text text-anchor="middle" x="55" y="-2554" font-family="Helvetica,sans-Serif" font-size="10.00" fill="white">4 units</text>
<text text-anchor="middle" x="55" y="-2543" font-family="Helvetica,sans-Serif" font-size="10.00" fill="white">(ReLU)</text>
</g>
<!-- layer17&#45;&gt;layer18 -->
<g id="edge18" class="edge">
<title>layer17&#45;&gt;layer18</title>
<path fill="none" stroke="black" d="M55,-2612.79C55,-2604.96 55,-2595.77 55,-2587.16"/>
<polygon fill="black" stroke="black" points="58.5,-2587.07 55,-2577.07 51.5,-2587.07 58.5,-2587.07"/>
</g>
<!-- layer19 -->
<g id="node20" class="node">
<title>layer19</title>
<polygon fill="#2d2d2d" stroke="lightgray" points="82,-2500 28,-2500 28,-2459 82,-2459 82,-2500"/>
<text text-anchor="middle" x="55" y="-2488" font-family="Helvetica,sans-Serif" font-size="10.00" fill="white">Linear</text>
<text text-anchor="middle" x="55" y="-2477" font-family="Helvetica,sans-Serif" font-size="10.00" fill="white">4 units</text>
<text text-anchor="middle" x="55" y="-2466" font-family="Helvetica,sans-Serif" font-size="10.00" fill="white">(ReLU)</text>
</g>
<!-- layer18&#45;&gt;layer19 -->
<g id="edge19" class="edge">
<title>layer18&#45;&gt;layer19</title>
<path fill="none" stroke="black" d="M55,-2535.79C55,-2527.96 55,-2518.77 55,-2510.16"/>
<polygon fill="black" stroke="black" points="58.5,-2510.07 55,-2500.07 51.5,-2510.07 58.5,-2510.07"/>
</g>
<!-- layer20 -->
<g id="node21" class="node">
<title>layer20</title>
<polygon fill="#2d2d2d" stroke="lightgray" points="82,-2423 28,-2423 28,-2382 82,-2382 82,-2423"/>
<text text-anchor="middle" x="55" y="-2411" font-family="Helvetica,sans-Serif" font-size="10.00" fill="white">Linear</text>
<text text-anchor="middle" x="55" y="-2400" font-family="Helvetica,sans-Serif" font-size="10.00" fill="white">4 units</text>
<text text-anchor="middle" x="55" y="-2389" font-family="Helvetica,sans-Serif" font-size="10.00" fill="white">(ReLU)</text>
</g>
<!-- layer19&#45;&gt;layer20 -->
<g id="edge20" class="edge">
<title>layer19&#45;&gt;layer20</title>
<path fill="none" stroke="black" d="M55,-2458.79C55,-2450.96 55,-2441.77 55,-2433.16"/>
<polygon fill="black" stroke="black" points="58.5,-2433.07 55,-2423.07 51.5,-2433.07 58.5,-2433.07"/>
</g>
<!-- layer21 -->
<g id="node22" class="node">
<title>layer21</title>
<polygon fill="#2d2d2d" stroke="lightgray" points="82,-2346 28,-2346 28,-2305 82,-2305 82,-2346"/>
<text text-anchor="middle" x="55" y="-2334" font-family="Helvetica,sans-Serif" font-size="10.00" fill="white">Linear</text>
<text text-anchor="middle" x="55" y="-2323" font-family="Helvetica,sans-Serif" font-size="10.00" fill="white">4 units</text>
<text text-anchor="middle" x="55" y="-2312" font-family="Helvetica,sans-Serif" font-size="10.00" fill="white">(ReLU)</text>
</g>
<!-- layer20&#45;&gt;layer21 -->
<g id="edge21" class="edge">
<title>layer20&#45;&gt;layer21</title>
<path fill="none" stroke="black" d="M55,-2381.79C55,-2373.96 55,-2364.77 55,-2356.16"/>
<polygon fill="black" stroke="black" points="58.5,-2356.07 55,-2346.07 51.5,-2356.07 58.5,-2356.07"/>
</g>
<!-- layer22 -->
<g id="node23" class="node">
<title>layer22</title>
<polygon fill="#2d2d2d" stroke="lightgray" points="82,-2269 28,-2269 28,-2228 82,-2228 82,-2269"/>
<text text-anchor="middle" x="55" y="-2257" font-family="Helvetica,sans-Serif" font-size="10.00" fill="white">Linear</text>
<text text-anchor="middle" x="55" y="-2246" font-family="Helvetica,sans-Serif" font-size="10.00" fill="white">4 units</text>
<text text-anchor="middle" x="55" y="-2235" font-family="Helvetica,sans-Serif" font-size="10.00" fill="white">(ReLU)</text>
</g>
<!-- layer21&#45;&gt;layer22 -->
<g id="edge22" class="edge">
<title>layer21&#45;&gt;layer22</title>
<path fill="none" stroke="black" d="M55,-2304.79C55,-2296.96 55,-2287.77 55,-2279.16"/>
<polygon fill="black" stroke="black" points="58.5,-2279.07 55,-2269.07 51.5,-2279.07 58.5,-2279.07"/>
</g>
<!-- layer23 -->
<g id="node24" class="node">
<title>layer23</title>
<polygon fill="#2d2d2d" stroke="lightgray" points="82,-2192 28,-2192 28,-2151 82,-2151 82,-2192"/>
<text text-anchor="middle" x="55" y="-2180" font-family="Helvetica,sans-Serif" font-size="10.00" fill="white">Linear</text>
<text text-anchor="middle" x="55" y="-2169" font-family="Helvetica,sans-Serif" font-size="10.00" fill="white">4 units</text>
<text text-anchor="middle" x="55" y="-2158" font-family="Helvetica,sans-Serif" font-size="10.00" fill="white">(ReLU)</text>
</g>
<!-- layer22&#45;&gt;layer23 -->
<g id="edge23" class="edge">
<title>layer22&#45;&gt;layer23</title>
<path fill="none" stroke="black" d="M55,-2227.79C55,-2219.96 55,-2210.77 55,-2202.16"/>
<polygon fill="black" stroke="black" points="58.5,-2202.07 55,-2192.07 51.5,-2202.07 58.5,-2202.07"/>
</g>
<!-- layer24 -->
<g id="node25" class="node">
<title>layer24</title>
<polygon fill="#2d2d2d" stroke="lightgray" points="82,-2115 28,-2115 28,-2074 82,-2074 82,-2115"/>
<text text-anchor="middle" x="55" y="-2103" font-family="Helvetica,sans-Serif" font-size="10.00" fill="white">Linear</text>
<text text-anchor="middle" x="55" y="-2092" font-family="Helvetica,sans-Serif" font-size="10.00" fill="white">4 units</text>
<text text-anchor="middle" x="55" y="-2081" font-family="Helvetica,sans-Serif" font-size="10.00" fill="white">(ReLU)</text>
</g>
<!-- layer23&#45;&gt;layer24 -->
<g id="edge24" class="edge">
<title>layer23&#45;&gt;layer24</title>
<path fill="none" stroke="black" d="M55,-2150.79C55,-2142.96 55,-2133.77 55,-2125.16"/>
<polygon fill="black" stroke="black" points="58.5,-2125.07 55,-2115.07 51.5,-2125.07 58.5,-2125.07"/>
</g>
<!-- layer25 -->
<g id="node26" class="node">
<title>layer25</title>
<polygon fill="#2d2d2d" stroke="lightgray" points="82,-2038 28,-2038 28,-1997 82,-1997 82,-2038"/>
<text text-anchor="middle" x="55" y="-2026" font-family="Helvetica,sans-Serif" font-size="10.00" fill="white">Linear</text>
<text text-anchor="middle" x="55" y="-2015" font-family="Helvetica,sans-Serif" font-size="10.00" fill="white">4 units</text>
<text text-anchor="middle" x="55" y="-2004" font-family="Helvetica,sans-Serif" font-size="10.00" fill="white">(ReLU)</text>
</g>
<!-- layer24&#45;&gt;layer25 -->
<g id="edge25" class="edge">
<title>layer24&#45;&gt;layer25</title>
<path fill="none" stroke="black" d="M55,-2073.79C55,-2065.96 55,-2056.77 55,-2048.16"/>
<polygon fill="black" stroke="black" points="58.5,-2048.07 55,-2038.07 51.5,-2048.07 58.5,-2048.07"/>
</g>
<!-- layer26 -->
<g id="node27" class="node">
<title>layer26</title>
<polygon fill="#2d2d2d" stroke="lightgray" points="82,-1961 28,-1961 28,-1920 82,-1920 82,-1961"/>
<text text-anchor="middle" x="55" y="-1949" font-family="Helvetica,sans-Serif" font-size="10.00" fill="white">Linear</text>
<text text-anchor="middle" x="55" y="-1938" font-family="Helvetica,sans-Serif" font-size="10.00" fill="white">4 units</text>
<text text-anchor="middle" x="55" y="-1927" font-family="Helvetica,sans-Serif" font-size="10.00" fill="white">(ReLU)</text>
</g>
<!-- layer25&#45;&gt;layer26 -->
<g id="edge26" class="edge">
<title>layer25&#45;&gt;layer26</title>
<path fill="none" stroke="black" d="M55,-1996.79C55,-1988.96 55,-1979.77 55,-1971.16"/>
<polygon fill="black" stroke="black" points="58.5,-1971.07 55,-1961.07 51.5,-1971.07 58.5,-1971.07"/>
</g>
<!-- layer27 -->
<g id="node28" class="node">
<title>layer27</title>
<polygon fill="#2d2d2d" stroke="lightgray" points="82,-1884 28,-1884 28,-1843 82,-1843 82,-1884"/>
<text text-anchor="middle" x="55" y="-1872" font-family="Helvetica,sans-Serif" font-size="10.00" fill="white">Linear</text>
<text text-anchor="middle" x="55" y="-1861" font-family="Helvetica,sans-Serif" font-size="10.00" fill="white">4 units</text>
<text text-anchor="middle" x="55" y="-1850" font-family="Helvetica,sans-Serif" font-size="10.00" fill="white">(ReLU)</text>
</g>
<!-- layer26&#45;&gt;layer27 -->
<g id="edge27" class="edge">
<title>layer26&#45;&gt;layer27</title>
<path fill="none" stroke="black" d="M55,-1919.79C55,-1911.96 55,-1902.77 55,-1894.16"/>
<polygon fill="black" stroke="black" points="58.5,-1894.07 55,-1884.07 51.5,-1894.07 58.5,-1894.07"/>
</g>
<!-- layer28 -->
<g id="node29" class="node">
<title>layer28</title>
<polygon fill="#2d2d2d" stroke="lightgray" points="82,-1807 28,-1807 28,-1766 82,-1766 82,-1807"/>
<text text-anchor="middle" x="55" y="-1795" font-family="Helvetica,sans-Serif" font-size="10.00" fill="white">Linear</text>
<text text-anchor="middle" x="55" y="-1784" font-family="Helvetica,sans-Serif" font-size="10.00" fill="white">4 units</text>
<text text-anchor="middle" x="55" y="-1773" font-family="Helvetica,sans-Serif" font-size="10.00" fill="white">(ReLU)</text>
</g>
<!-- layer27&#45;&gt;layer28 -->
<g id="edge28" class="edge">
<title>layer27&#45;&gt;layer28</title>
<path fill="none" stroke="black" d="M55,-1842.79C55,-1834.96 55,-1825.77 55,-1817.16"/>
<polygon fill="black" stroke="black" points="58.5,-1817.07 55,-1807.07 51.5,-1817.07 58.5,-1817.07"/>
</g>
<!-- layer29 -->
<g id="node30" class="node">
<title>layer29</title>
<polygon fill="#2d2d2d" stroke="lightgray" points="82,-1730 28,-1730 28,-1689 82,-1689 82,-1730"/>
<text text-anchor="middle" x="55" y="-1718" font-family="Helvetica,sans-Serif" font-size="10.00" fill="white">Linear</text>
<text text-anchor="middle" x="55" y="-1707" font-family="Helvetica,sans-Serif" font-size="10.00" fill="white">4 units</text>
<text text-anchor="middle" x="55" y="-1696" font-family="Helvetica,sans-Serif" font-size="10.00" fill="white">(ReLU)</text>
</g>
<!-- layer28&#45;&gt;layer29 -->
<g id="edge29" class="edge">
<title>layer28&#45;&gt;layer29</title>
<path fill="none" stroke="black" d="M55,-1765.79C55,-1757.96 55,-1748.77 55,-1740.16"/>
<polygon fill="black" stroke="black" points="58.5,-1740.07 55,-1730.07 51.5,-1740.07 58.5,-1740.07"/>
</g>
<!-- layer30 -->
<g id="node31" class="node">
<title>layer30</title>
<polygon fill="#2d2d2d" stroke="lightgray" points="82,-1653 28,-1653 28,-1612 82,-1612 82,-1653"/>
<text text-anchor="middle" x="55" y="-1641" font-family="Helvetica,sans-Serif" font-size="10.00" fill="white">Linear</text>
<text text-anchor="middle" x="55" y="-1630" font-family="Helvetica,sans-Serif" font-size="10.00" fill="white">4 units</text>
<text text-anchor="middle" x="55" y="-1619" font-family="Helvetica,sans-Serif" font-size="10.00" fill="white">(ReLU)</text>
</g>
<!-- layer29&#45;&gt;layer30 -->
<g id="edge30" class="edge">
<title>layer29&#45;&gt;layer30</title>
<path fill="none" stroke="black" d="M55,-1688.79C55,-1680.96 55,-1671.77 55,-1663.16"/>
<polygon fill="black" stroke="black" points="58.5,-1663.07 55,-1653.07 51.5,-1663.07 58.5,-1663.07"/>
</g>
<!-- layer31 -->
<g id="node32" class="node">
<title>layer31</title>
<polygon fill="#2d2d2d" stroke="lightgray" points="82,-1576 28,-1576 28,-1535 82,-1535 82,-1576"/>
<text text-anchor="middle" x="55" y="-1564" font-family="Helvetica,sans-Serif" font-size="10.00" fill="white">Linear</text>
<text text-anchor="middle" x="55" y="-1553" font-family="Helvetica,sans-Serif" font-size="10.00" fill="white">4 units</text>
<text text-anchor="middle" x="55" y="-1542" font-family="Helvetica,sans-Serif" font-size="10.00" fill="white">(ReLU)</text>
</g>
<!-- layer30&#45;&gt;layer31 -->
<g id="edge31" class="edge">
<title>layer30&#45;&gt;layer31</title>
<path fill="none" stroke="black" d="M55,-1611.79C55,-1603.96 55,-1594.77 55,-1586.16"/>
<polygon fill="black" stroke="black" points="58.5,-1586.07 55,-1576.07 51.5,-1586.07 58.5,-1586.07"/>
</g>
<!-- layer32 -->
<g id="node33" class="node">
<title>layer32</title>
<polygon fill="#2d2d2d" stroke="lightgray" points="82,-1499 28,-1499 28,-1458 82,-1458 82,-1499"/>
<text text-anchor="middle" x="55" y="-1487" font-family="Helvetica,sans-Serif" font-size="10.00" fill="white">Linear</text>
<text text-anchor="middle" x="55" y="-1476" font-family="Helvetica,sans-Serif" font-size="10.00" fill="white">4 units</text>
<text text-anchor="middle" x="55" y="-1465" font-family="Helvetica,sans-Serif" font-size="10.00" fill="white">(ReLU)</text>
</g>
<!-- layer31&#45;&gt;layer32 -->
<g id="edge32" class="edge">
<title>layer31&#45;&gt;layer32</title>
<path fill="none" stroke="black" d="M55,-1534.79C55,-1526.96 55,-1517.77 55,-1509.16"/>
<polygon fill="black" stroke="black" points="58.5,-1509.07 55,-1499.07 51.5,-1509.07 58.5,-1509.07"/>
</g>
<!-- layer33 -->
<g id="node34" class="node">
<title>layer33</title>
<polygon fill="#2d2d2d" stroke="lightgray" points="82,-1422 28,-1422 28,-1381 82,-1381 82,-1422"/>
<text text-anchor="middle" x="55" y="-1410" font-family="Helvetica,sans-Serif" font-size="10.00" fill="white">Linear</text>
<text text-anchor="middle" x="55" y="-1399" font-family="Helvetica,sans-Serif" font-size="10.00" fill="white">4 units</text>
<text text-anchor="middle" x="55" y="-1388" font-family="Helvetica,sans-Serif" font-size="10.00" fill="white">(ReLU)</text>
</g>
<!-- layer32&#45;&gt;layer33 -->
<g id="edge33" class="edge">
<title>layer32&#45;&gt;layer33</title>
<path fill="none" stroke="black" d="M55,-1457.79C55,-1449.96 55,-1440.77 55,-1432.16"/>
<polygon fill="black" stroke="black" points="58.5,-1432.07 55,-1422.07 51.5,-1432.07 58.5,-1432.07"/>
</g>
<!-- layer34 -->
<g id="node35" class="node">
<title>layer34</title>
<polygon fill="#2d2d2d" stroke="lightgray" points="82,-1345 28,-1345 28,-1304 82,-1304 82,-1345"/>
<text text-anchor="middle" x="55" y="-1333" font-family="Helvetica,sans-Serif" font-size="10.00" fill="white">Linear</text>
<text text-anchor="middle" x="55" y="-1322" font-family="Helvetica,sans-Serif" font-size="10.00" fill="white">4 units</text>
<text text-anchor="middle" x="55" y="-1311" font-family="Helvetica,sans-Serif" font-size="10.00" fill="white">(ReLU)</text>
</g>
<!-- layer33&#45;&gt;layer34 -->
<g id="edge34" class="edge">
<title>layer33&#45;&gt;layer34</title>
<path fill="none" stroke="black" d="M55,-1380.79C55,-1372.96 55,-1363.77 55,-1355.16"/>
<polygon fill="black" stroke="black" points="58.5,-1355.07 55,-1345.07 51.5,-1355.07 58.5,-1355.07"/>
</g>
<!-- layer35 -->
<g id="node36" class="node">
<title>layer35</title>
<polygon fill="#2d2d2d" stroke="lightgray" points="82,-1268 28,-1268 28,-1227 82,-1227 82,-1268"/>
<text text-anchor="middle" x="55" y="-1256" font-family="Helvetica,sans-Serif" font-size="10.00" fill="white">Linear</text>
<text text-anchor="middle" x="55" y="-1245" font-family="Helvetica,sans-Serif" font-size="10.00" fill="white">4 units</text>
<text text-anchor="middle" x="55" y="-1234" font-family="Helvetica,sans-Serif" font-size="10.00" fill="white">(ReLU)</text>
</g>
<!-- layer34&#45;&gt;layer35 -->
<g id="edge35" class="edge">
<title>layer34&#45;&gt;layer35</title>
<path fill="none" stroke="black" d="M55,-1303.79C55,-1295.96 55,-1286.77 55,-1278.16"/>
<polygon fill="black" stroke="black" points="58.5,-1278.07 55,-1268.07 51.5,-1278.07 58.5,-1278.07"/>
</g>
<!-- layer36 -->
<g id="node37" class="node">
<title>layer36</title>
<polygon fill="#2d2d2d" stroke="lightgray" points="82,-1191 28,-1191 28,-1150 82,-1150 82,-1191"/>
<text text-anchor="middle" x="55" y="-1179" font-family="Helvetica,sans-Serif" font-size="10.00" fill="white">Linear</text>
<text text-anchor="middle" x="55" y="-1168" font-family="Helvetica,sans-Serif" font-size="10.00" fill="white">4 units</text>
<text text-anchor="middle" x="55" y="-1157" font-family="Helvetica,sans-Serif" font-size="10.00" fill="white">(ReLU)</text>
</g>
<!-- layer35&#45;&gt;layer36 -->
<g id="edge36" class="edge">
<title>layer35&#45;&gt;layer36</title>
<path fill="none" stroke="black" d="M55,-1226.79C55,-1218.96 55,-1209.77 55,-1201.16"/>
<polygon fill="black" stroke="black" points="58.5,-1201.07 55,-1191.07 51.5,-1201.07 58.5,-1201.07"/>
</g>
<!-- layer37 -->
<g id="node38" class="node">
<title>layer37</title>
<polygon fill="#2d2d2d" stroke="lightgray" points="82,-1114 28,-1114 28,-1073 82,-1073 82,-1114"/>
<text text-anchor="middle" x="55" y="-1102" font-family="Helvetica,sans-Serif" font-size="10.00" fill="white">Linear</text>
<text text-anchor="middle" x="55" y="-1091" font-family="Helvetica,sans-Serif" font-size="10.00" fill="white">4 units</text>
<text text-anchor="middle" x="55" y="-1080" font-family="Helvetica,sans-Serif" font-size="10.00" fill="white">(ReLU)</text>
</g>
<!-- layer36&#45;&gt;layer37 -->
<g id="edge37" class="edge">
<title>layer36&#45;&gt;layer37</title>
<path fill="none" stroke="black" d="M55,-1149.79C55,-1141.96 55,-1132.77 55,-1124.16"/>
<polygon fill="black" stroke="black" points="58.5,-1124.07 55,-1114.07 51.5,-1124.07 58.5,-1124.07"/>
</g>
<!-- layer38 -->
<g id="node39" class="node">
<title>layer38</title>
<polygon fill="#2d2d2d" stroke="lightgray" points="82,-1037 28,-1037 28,-996 82,-996 82,-1037"/>
<text text-anchor="middle" x="55" y="-1025" font-family="Helvetica,sans-Serif" font-size="10.00" fill="white">Linear</text>
<text text-anchor="middle" x="55" y="-1014" font-family="Helvetica,sans-Serif" font-size="10.00" fill="white">4 units</text>
<text text-anchor="middle" x="55" y="-1003" font-family="Helvetica,sans-Serif" font-size="10.00" fill="white">(ReLU)</text>
</g>
<!-- layer37&#45;&gt;layer38 -->
<g id="edge38" class="edge">
<title>layer37&#45;&gt;layer38</title>
<path fill="none" stroke="black" d="M55,-1072.79C55,-1064.96 55,-1055.77 55,-1047.16"/>
<polygon fill="black" stroke="black" points="58.5,-1047.07 55,-1037.07 51.5,-1047.07 58.5,-1047.07"/>
</g>
<!-- layer39 -->
<g id="node40" class="node">
<title>layer39</title>
<polygon fill="#2d2d2d" stroke="lightgray" points="82,-960 28,-960 28,-919 82,-919 82,-960"/>
<text text-anchor="middle" x="55" y="-948" font-family="Helvetica,sans-Serif" font-size="10.00" fill="white">Linear</text>
<text text-anchor="middle" x="55" y="-937" font-family="Helvetica,sans-Serif" font-size="10.00" fill="white">4 units</text>
<text text-anchor="middle" x="55" y="-926" font-family="Helvetica,sans-Serif" font-size="10.00" fill="white">(ReLU)</text>
</g>
<!-- layer38&#45;&gt;layer39 -->
<g id="edge39" class="edge">
<title>layer38&#45;&gt;layer39</title>
<path fill="none" stroke="black" d="M55,-995.79C55,-987.96 55,-978.77 55,-970.16"/>
<polygon fill="black" stroke="black" points="58.5,-970.07 55,-960.07 51.5,-970.07 58.5,-970.07"/>
</g>
<!-- layer40 -->
<g id="node41" class="node">
<title>layer40</title>
<polygon fill="#2d2d2d" stroke="lightgray" points="82,-883 28,-883 28,-842 82,-842 82,-883"/>
<text text-anchor="middle" x="55" y="-871" font-family="Helvetica,sans-Serif" font-size="10.00" fill="white">Linear</text>
<text text-anchor="middle" x="55" y="-860" font-family="Helvetica,sans-Serif" font-size="10.00" fill="white">4 units</text>
<text text-anchor="middle" x="55" y="-849" font-family="Helvetica,sans-Serif" font-size="10.00" fill="white">(ReLU)</text>
</g>
<!-- layer39&#45;&gt;layer40 -->
<g id="edge40" class="edge">
<title>layer39&#45;&gt;layer40</title>
<path fill="none" stroke="black" d="M55,-918.79C55,-910.96 55,-901.77 55,-893.16"/>
<polygon fill="black" stroke="black" points="58.5,-893.07 55,-883.07 51.5,-893.07 58.5,-893.07"/>
</g>
<!-- layer41 -->
<g id="node42" class="node">
<title>layer41</title>
<polygon fill="#2d2d2d" stroke="lightgray" points="82,-806 28,-806 28,-765 82,-765 82,-806"/>
<text text-anchor="middle" x="55" y="-794" font-family="Helvetica,sans-Serif" font-size="10.00" fill="white">Linear</text>
<text text-anchor="middle" x="55" y="-783" font-family="Helvetica,sans-Serif" font-size="10.00" fill="white">4 units</text>
<text text-anchor="middle" x="55" y="-772" font-family="Helvetica,sans-Serif" font-size="10.00" fill="white">(ReLU)</text>
</g>
<!-- layer40&#45;&gt;layer41 -->
<g id="edge41" class="edge">
<title>layer40&#45;&gt;layer41</title>
<path fill="none" stroke="black" d="M55,-841.79C55,-833.96 55,-824.77 55,-816.16"/>
<polygon fill="black" stroke="black" points="58.5,-816.07 55,-806.07 51.5,-816.07 58.5,-816.07"/>
</g>
<!-- layer42 -->
<g id="node43" class="node">
<title>layer42</title>
<polygon fill="#2d2d2d" stroke="lightgray" points="82,-729 28,-729 28,-688 82,-688 82,-729"/>
<text text-anchor="middle" x="55" y="-717" font-family="Helvetica,sans-Serif" font-size="10.00" fill="white">Linear</text>
<text text-anchor="middle" x="55" y="-706" font-family="Helvetica,sans-Serif" font-size="10.00" fill="white">4 units</text>
<text text-anchor="middle" x="55" y="-695" font-family="Helvetica,sans-Serif" font-size="10.00" fill="white">(ReLU)</text>
</g>
<!-- layer41&#45;&gt;layer42 -->
<g id="edge42" class="edge">
<title>layer41&#45;&gt;layer42</title>
<path fill="none" stroke="black" d="M55,-764.79C55,-756.96 55,-747.77 55,-739.16"/>
<polygon fill="black" stroke="black" points="58.5,-739.07 55,-729.07 51.5,-739.07 58.5,-739.07"/>
</g>
<!-- layer43 -->
<g id="node44" class="node">
<title>layer43</title>
<polygon fill="#2d2d2d" stroke="lightgray" points="82,-652 28,-652 28,-611 82,-611 82,-652"/>
<text text-anchor="middle" x="55" y="-640" font-family="Helvetica,sans-Serif" font-size="10.00" fill="white">Linear</text>
<text text-anchor="middle" x="55" y="-629" font-family="Helvetica,sans-Serif" font-size="10.00" fill="white">4 units</text>
<text text-anchor="middle" x="55" y="-618" font-family="Helvetica,sans-Serif" font-size="10.00" fill="white">(ReLU)</text>
</g>
<!-- layer42&#45;&gt;layer43 -->
<g id="edge43" class="edge">
<title>layer42&#45;&gt;layer43</title>
<path fill="none" stroke="black" d="M55,-687.79C55,-679.96 55,-670.77 55,-662.16"/>
<polygon fill="black" stroke="black" points="58.5,-662.07 55,-652.07 51.5,-662.07 58.5,-662.07"/>
</g>
<!-- layer44 -->
<g id="node45" class="node">
<title>layer44</title>
<polygon fill="#2d2d2d" stroke="lightgray" points="82,-575 28,-575 28,-534 82,-534 82,-575"/>
<text text-anchor="middle" x="55" y="-563" font-family="Helvetica,sans-Serif" font-size="10.00" fill="white">Linear</text>
<text text-anchor="middle" x="55" y="-552" font-family="Helvetica,sans-Serif" font-size="10.00" fill="white">4 units</text>
<text text-anchor="middle" x="55" y="-541" font-family="Helvetica,sans-Serif" font-size="10.00" fill="white">(ReLU)</text>
</g>
<!-- layer43&#45;&gt;layer44 -->
<g id="edge44" class="edge">
<title>layer43&#45;&gt;layer44</title>
<path fill="none" stroke="black" d="M55,-610.79C55,-602.96 55,-593.77 55,-585.16"/>
<polygon fill="black" stroke="black" points="58.5,-585.07 55,-575.07 51.5,-585.07 58.5,-585.07"/>
</g>
<!-- layer45 -->
<g id="node46" class="node">
<title>layer45</title>
<polygon fill="#2d2d2d" stroke="lightgray" points="82,-498 28,-498 28,-457 82,-457 82,-498"/>
<text text-anchor="middle" x="55" y="-486" font-family="Helvetica,sans-Serif" font-size="10.00" fill="white">Linear</text>
<text text-anchor="middle" x="55" y="-475" font-family="Helvetica,sans-Serif" font-size="10.00" fill="white">4 units</text>
<text text-anchor="middle" x="55" y="-464" font-family="Helvetica,sans-Serif" font-size="10.00" fill="white">(ReLU)</text>
</g>
<!-- layer44&#45;&gt;layer45 -->
<g id="edge45" class="edge">
<title>layer44&#45;&gt;layer45</title>
<path fill="none" stroke="black" d="M55,-533.79C55,-525.96 55,-516.77 55,-508.16"/>
<polygon fill="black" stroke="black" points="58.5,-508.07 55,-498.07 51.5,-508.07 58.5,-508.07"/>
</g>
<!-- layer46 -->
<g id="node47" class="node">
<title>layer46</title>
<polygon fill="#2d2d2d" stroke="lightgray" points="82,-421 28,-421 28,-380 82,-380 82,-421"/>
<text text-anchor="middle" x="55" y="-409" font-family="Helvetica,sans-Serif" font-size="10.00" fill="white">Linear</text>
<text text-anchor="middle" x="55" y="-398" font-family="Helvetica,sans-Serif" font-size="10.00" fill="white">4 units</text>
<text text-anchor="middle" x="55" y="-387" font-family="Helvetica,sans-Serif" font-size="10.00" fill="white">(ReLU)</text>
</g>
<!-- layer45&#45;&gt;layer46 -->
<g id="edge46" class="edge">
<title>layer45&#45;&gt;layer46</title>
<path fill="none" stroke="black" d="M55,-456.79C55,-448.96 55,-439.77 55,-431.16"/>
<polygon fill="black" stroke="black" points="58.5,-431.07 55,-421.07 51.5,-431.07 58.5,-431.07"/>
</g>
<!-- layer47 -->
<g id="node48" class="node">
<title>layer47</title>
<polygon fill="#2d2d2d" stroke="lightgray" points="82,-344 28,-344 28,-303 82,-303 82,-344"/>
<text text-anchor="middle" x="55" y="-332" font-family="Helvetica,sans-Serif" font-size="10.00" fill="white">Linear</text>
<text text-anchor="middle" x="55" y="-321" font-family="Helvetica,sans-Serif" font-size="10.00" fill="white">4 units</text>
<text text-anchor="middle" x="55" y="-310" font-family="Helvetica,sans-Serif" font-size="10.00" fill="white">(ReLU)</text>
</g>
<!-- layer46&#45;&gt;layer47 -->
<g id="edge47" class="edge">
<title>layer46&#45;&gt;layer47</title>
<path fill="none" stroke="black" d="M55,-379.79C55,-371.96 55,-362.77 55,-354.16"/>
<polygon fill="black" stroke="black" points="58.5,-354.07 55,-344.07 51.5,-354.07 58.5,-354.07"/>
</g>
<!-- layer48 -->
<g id="node49" class="node">
<title>layer48</title>
<polygon fill="#2d2d2d" stroke="lightgray" points="82,-267 28,-267 28,-226 82,-226 82,-267"/>
<text text-anchor="middle" x="55" y="-255" font-family="Helvetica,sans-Serif" font-size="10.00" fill="white">Linear</text>
<text text-anchor="middle" x="55" y="-244" font-family="Helvetica,sans-Serif" font-size="10.00" fill="white">4 units</text>
<text text-anchor="middle" x="55" y="-233" font-family="Helvetica,sans-Serif" font-size="10.00" fill="white">(ReLU)</text>
</g>
<!-- layer47&#45;&gt;layer48 -->
<g id="edge48" class="edge">
<title>layer47&#45;&gt;layer48</title>
<path fill="none" stroke="black" d="M55,-302.79C55,-294.96 55,-285.77 55,-277.16"/>
<polygon fill="black" stroke="black" points="58.5,-277.07 55,-267.07 51.5,-277.07 58.5,-277.07"/>
</g>
<!-- layer49 -->
<g id="node50" class="node">
<title>layer49</title>
<polygon fill="#2d2d2d" stroke="lightgray" points="82,-190 28,-190 28,-149 82,-149 82,-190"/>
<text text-anchor="middle" x="55" y="-178" font-family="Helvetica,sans-Serif" font-size="10.00" fill="white">Linear</text>
<text text-anchor="middle" x="55" y="-167" font-family="Helvetica,sans-Serif" font-size="10.00" fill="white">4 units</text>
<text text-anchor="middle" x="55" y="-156" font-family="Helvetica,sans-Serif" font-size="10.00" fill="white">(ReLU)</text>
</g>
<!-- layer48&#45;&gt;layer49 -->
<g id="edge49" class="edge">
<title>layer48&#45;&gt;layer49</title>
<path fill="none" stroke="black" d="M55,-225.79C55,-217.96 55,-208.77 55,-200.16"/>
<polygon fill="black" stroke="black" points="58.5,-200.07 55,-190.07 51.5,-200.07 58.5,-200.07"/>
</g>
<!-- layer50 -->
<g id="node51" class="node">
<title>layer50</title>
<polygon fill="#2d2d2d" stroke="lightgray" points="82,-113 28,-113 28,-72 82,-72 82,-113"/>
<text text-anchor="middle" x="55" y="-101" font-family="Helvetica,sans-Serif" font-size="10.00" fill="white">Linear</text>
<text text-anchor="middle" x="55" y="-90" font-family="Helvetica,sans-Serif" font-size="10.00" fill="white">4 units</text>
<text text-anchor="middle" x="55" y="-79" font-family="Helvetica,sans-Serif" font-size="10.00" fill="white">(ReLU)</text>
</g>
<!-- layer49&#45;&gt;layer50 -->
<g id="edge50" class="edge">
<title>layer49&#45;&gt;layer50</title>
<path fill="none" stroke="black" d="M55,-148.79C55,-140.96 55,-131.77 55,-123.16"/>
<polygon fill="black" stroke="black" points="58.5,-123.07 55,-113.07 51.5,-123.07 58.5,-123.07"/>
</g>
<!-- output -->
<g id="node52" class="node">
<title>output</title>
<polygon fill="#2d2d2d" stroke="lightgray" points="110,-36 0,-36 0,0 110,0 110,-36"/>
<text text-anchor="middle" x="55" y="-21" font-family="Helvetica,sans-Serif" font-size="10.00" fill="white">Output</text>
<text text-anchor="middle" x="55" y="-10" font-family="Helvetica,sans-Serif" font-size="10.00" fill="white">Linear → [B, D_out]</text>
</g>
<!-- layer50&#45;&gt;output -->
<g id="edge51" class="edge">
<title>layer50&#45;&gt;output</title>
<path fill="none" stroke="black" d="M55,-71.69C55,-63.91 55,-54.84 55,-46.45"/>
<polygon fill="black" stroke="black" points="58.5,-46.32 55,-36.32 51.5,-46.32 58.5,-46.32"/>
</g>
</g>
</svg>
