<?xml version="1.0" encoding="UTF-8" standalone="no"?>
<!DOCTYPE svg PUBLIC "-//W3C//DTD SVG 1.1//EN"
 "http://www.w3.org/Graphics/SVG/1.1/DTD/svg11.dtd">
<!-- Generated by graphviz version 2.43.0 (0)
 -->
<!-- Title: %3 Pages: 1 -->
<svg width="205pt" height="633pt"
 viewBox="0.00 0.00 205.00 633.00" xmlns="http://www.w3.org/2000/svg" xmlns:xlink="http://www.w3.org/1999/xlink">
<g id="graph0" class="graph" transform="scale(1 1) rotate(0) translate(4 629)">
<title>%3</title>
<polygon fill="#1e1e1e" stroke="transparent" points="-4,4 -4,-629 201,-629 201,4 -4,4"/>
<!-- input -->
<g id="node1" class="node">
<title>input</title>
<polygon fill="#2d2d2d" stroke="lightgray" points="144,-625 53,-625 53,-589 144,-589 144,-625"/>
<text text-anchor="middle" x="98.5" y="-610" font-family="Helvetica,sans-Serif" font-size="10.00" fill="white">Input</text>
<text text-anchor="middle" x="98.5" y="-599" font-family="Helvetica,sans-Serif" font-size="10.00" fill="white">[B, 3, 224, 224]</text>
</g>
<!-- stem -->
<g id="node2" class="node">
<title>stem</title>
<polygon fill="#2d2d2d" stroke="lightgray" points="197,-553 0,-553 0,-512 197,-512 197,-553"/>
<text text-anchor="middle" x="98.5" y="-541" font-family="Helvetica,sans-Serif" font-size="10.00" fill="white">Stem</text>
<text text-anchor="middle" x="98.5" y="-530" font-family="Helvetica,sans-Serif" font-size="10.00" fill="white">Conv7x7, 64, s=2 → [B, 64, 112, 112]</text>
<text text-anchor="middle" x="98.5" y="-519" font-family="Helvetica,sans-Serif" font-size="10.00" fill="white">MaxPool3x3, s=2 → [B, 64, 56, 56]</text>
</g>
<!-- input&#45;&gt;stem -->
<g id="edge1" class="edge">
<title>input&#45;&gt;stem</title>
<path fill="none" stroke="black" d="M98.5,-588.82C98.5,-581.2 98.5,-572 98.5,-563.32"/>
<polygon fill="black" stroke="black" points="102,-563.12 98.5,-553.12 95,-563.12 102,-563.12"/>
</g>
<!-- layer1 -->
<g id="node3" class="node">
<title>layer1</title>
<polygon fill="#2d2d2d" stroke="lightgray" points="168,-476 29,-476 29,-424 168,-424 168,-476"/>
<text text-anchor="middle" x="98.5" y="-464" font-family="Helvetica,sans-Serif" font-size="10.00" fill="white">Layer1</text>
<text text-anchor="middle" x="98.5" y="-453" font-family="Helvetica,sans-Serif" font-size="10.00" fill="white">3x Bottleneck</text>
<text text-anchor="middle" x="98.5" y="-442" font-family="Helvetica,sans-Serif" font-size="10.00" fill="white">in=64, mid=64, out=256</text>
<text text-anchor="middle" x="98.5" y="-431" font-family="Helvetica,sans-Serif" font-size="10.00" fill="white">→ [B, 256, 56, 56]</text>
</g>
<!-- stem&#45;&gt;layer1 -->
<g id="edge2" class="edge">
<title>stem&#45;&gt;layer1</title>
<path fill="none" stroke="black" d="M98.5,-511.6C98.5,-503.99 98.5,-495.06 98.5,-486.43"/>
<polygon fill="black" stroke="black" points="102,-486.16 98.5,-476.16 95,-486.16 102,-486.16"/>
</g>
<!-- layer2 -->
<g id="node4" class="node">
<title>layer2</title>
<polygon fill="#2d2d2d" stroke="lightgray" points="174,-388 23,-388 23,-336 174,-336 174,-388"/>
<text text-anchor="middle" x="98.5" y="-376" font-family="Helvetica,sans-Serif" font-size="10.00" fill="white">Layer2</text>
<text text-anchor="middle" x="98.5" y="-365" font-family="Helvetica,sans-Serif" font-size="10.00" fill="white">4x Bottleneck</text>
<text text-anchor="middle" x="98.5" y="-354" font-family="Helvetica,sans-Serif" font-size="10.00" fill="white">in=256, mid=128, out=512</text>
<text text-anchor="middle" x="98.5" y="-343" font-family="Helvetica,sans-Serif" font-size="10.00" fill="white">→ [B, 512, 28, 28]</text>
</g>
<!-- layer1&#45;&gt;layer2 -->
<g id="edge3" class="edge">
<title>layer1&#45;&gt;layer2</title>
<path fill="none" stroke="black" d="M98.5,-423.66C98.5,-415.7 98.5,-406.76 98.5,-398.24"/>
<polygon fill="black" stroke="black" points="102,-398.16 98.5,-388.16 95,-398.16 102,-398.16"/>
</g>
<!-- layer3 -->
<g id="node5" class="node">
<title>layer3</title>
<polygon fill="#2d2d2d" stroke="lightgray" points="177,-300 20,-300 20,-248 177,-248 177,-300"/>
<text text-anchor="middle" x="98.5" y="-288" font-family="Helvetica,sans-Serif" font-size="10.00" fill="white">Layer3</text>
<text text-anchor="middle" x="98.5" y="-277" font-family="Helvetica,sans-Serif" font-size="10.00" fill="white">6x Bottleneck</text>
<text text-anchor="middle" x="98.5" y="-266" font-family="Helvetica,sans-Serif" font-size="10.00" fill="white">in=512, mid=256, out=1024</text>
<text text-anchor="middle" x="98.5" y="-255" font-family="Helvetica,sans-Serif" font-size="10.00" fill="white">→ [B, 1024, 14, 14]</text>
</g>
<!-- layer2&#45;&gt;layer3 -->
<g id="edge4" class="edge">
<title>layer2&#45;&gt;layer3</title>
<path fill="none" stroke="black" d="M98.5,-335.66C98.5,-327.7 98.5,-318.76 98.5,-310.24"/>
<polygon fill="black" stroke="black" points="102,-310.16 98.5,-300.16 95,-310.16 102,-310.16"/>
</g>
<!-- layer4 -->
<g id="node6" class="node">
<title>layer4</title>
<polygon fill="#2d2d2d" stroke="lightgray" points="180,-212 17,-212 17,-160 180,-160 180,-212"/>
<text text-anchor="middle" x="98.5" y="-200" font-family="Helvetica,sans-Serif" font-size="10.00" fill="white">Layer4</text>
<text text-anchor="middle" x="98.5" y="-189" font-family="Helvetica,sans-Serif" font-size="10.00" fill="white">3x Bottleneck</text>
<text text-anchor="middle" x="98.5" y="-178" font-family="Helvetica,sans-Serif" font-size="10.00" fill="white">in=1024, mid=512, out=2048</text>
<text text-anchor="middle" x="98.5" y="-167" font-family="Helvetica,sans-Serif" font-size="10.00" fill="white">→ [B, 2048, 7, 7]</text>
</g>
<!-- layer3&#45;&gt;layer4 -->
<g id="edge5" class="edge">
<title>layer3&#45;&gt;layer4</title>
<path fill="none" stroke="black" d="M98.5,-247.66C98.5,-239.7 98.5,-230.76 98.5,-222.24"/>
<polygon fill="black" stroke="black" points="102,-222.16 98.5,-212.16 95,-222.16 102,-222.16"/>
</g>
<!-- head -->
<g id="node7" class="node">
<title>head</title>
<polygon fill="#2d2d2d" stroke="lightgray" points="167.5,-124 29.5,-124 29.5,-72 167.5,-72 167.5,-124"/>
<text text-anchor="middle" x="98.5" y="-112" font-family="Helvetica,sans-Serif" font-size="10.00" fill="white">Head</text>
<text text-anchor="middle" x="98.5" y="-101" font-family="Helvetica,sans-Serif" font-size="10.00" fill="white">AvgPool → [B, 2048, 1, 1]</text>
<text text-anchor="middle" x="98.5" y="-90" font-family="Helvetica,sans-Serif" font-size="10.00" fill="white">Flatten → [B, 2048]</text>
<text text-anchor="middle" x="98.5" y="-79" font-family="Helvetica,sans-Serif" font-size="10.00" fill="white">FC → [B, 1000]</text>
</g>
<!-- layer4&#45;&gt;head -->
<g id="edge6" class="edge">
<title>layer4&#45;&gt;head</title>
<path fill="none" stroke="black" d="M98.5,-159.66C98.5,-151.7 98.5,-142.76 98.5,-134.24"/>
<polygon fill="black" stroke="black" points="102,-134.16 98.5,-124.16 95,-134.16 102,-134.16"/>
</g>
<!-- output -->
<g id="node8" class="node">
<title>output</title>
<polygon fill="#2d2d2d" stroke="lightgray" points="129,-36 68,-36 68,0 129,0 129,-36"/>
<text text-anchor="middle" x="98.5" y="-21" font-family="Helvetica,sans-Serif" font-size="10.00" fill="white">Output</text>
<text text-anchor="middle" x="98.5" y="-10" font-family="Helvetica,sans-Serif" font-size="10.00" fill="white">[B, 1000]</text>
</g>
<!-- head&#45;&gt;output -->
<g id="edge7" class="edge">
<title>head&#45;&gt;output</title>
<path fill="none" stroke="black" d="M98.5,-71.89C98.5,-63.84 98.5,-54.88 98.5,-46.66"/>
<polygon fill="black" stroke="black" points="102,-46.41 98.5,-36.41 95,-46.41 102,-46.41"/>
</g>
</g>
</svg>
